<svg xmlns="http://www.w3.org/2000/svg" height="40" viewBox="0 -960 960 960" width="40"><path d="M281.878-256.667q-93.155 0-158.183-65.005-65.028-65.006-65.028-158.25 0-93.245 65.028-158.661Q188.723-704 281.878-704h101.289q20.617 0 35.558 15.309 14.942 15.308 14.942 35.974 0 21.05-14.942 35.883Q403.784-602 383.167-602H282q-51.167 0-86.584 35.382-35.417 35.383-35.417 86.5 0 51.118 35.417 86.618Q230.833-358 282-358h101.167q20.617 0 35.558 14.976 14.942 14.975 14.942 35.641 0 21.05-14.942 35.883-14.941 14.833-35.558 14.833H281.878ZM345.5-442q-16.067 0-27.283-10.917Q307-463.834 307-480.45q0-16.617 10.883-27.417 10.884-10.799 27.617-10.799h269.333q15.684 0 26.925 10.941Q653-496.783 653-480.383q0 16.783-10.908 27.583-10.909 10.8-27.259 10.8H345.5Zm232.333 185.333q-21.667 0-36.583-14.95-14.917-14.95-14.917-35.833t14.917-35.716Q556.166-358 577.833-358h100.334q51.097 0 86.465-35.382 35.369-35.382 35.369-86.5T764.632-566.5Q729.264-602 678.167-602H577.833q-21.667 0-36.583-14.951-14.917-14.95-14.917-35.833t14.917-36.049Q556.166-704 577.833-704H678q93.277 0 158.638 65.339Q902-573.322 902-480.078q0 93.245-65.362 158.328Q771.277-256.667 678-256.667H577.833Z" fill="#ffffff"/></svg>